# xmcd CD database file
#
# Track frame offsets:
#	150
#	21380
#	50121
#	73746
#	104085
#	128411
#	133194
#	162184
#	189078
#	208908
#	224194
#	241433
#
# Disc length: 3509 seconds
#
# Revision: 0
# Processed by: cddbd v1.5.1PL0 Copyright (c) Steve Scherf et al.
# Submitted via: CDex 1.51
#
DISCID=c10db30c
DTITLE=Uuzgin Üüver - Vörös Rébék 
DYEAR=2004
DGENRE=World
TTITLE0=01 Uuzgin Üüver - Varjú I./ Crow I.
TTITLE1=02 Uuzgin Üüver - Folyópart/ Riverbank
TTITLE2=03 Uuzgin Üüver - Palló/ Plank
TTITLE3=04 Uuzgin Üüver - Mulatság/ Amusement
TTITLE4=05 Uuzgin Üüver - Csábítás/ Temptation
TTITLE5=06 Uuzgin Üüver - Varjú III./ Crow III.
TTITLE6=07 Uuzgin Üüver - Üllõ/ Hammer
TTITLE7=08 Uuzgin Üüver - Kasznár/Shepherd
TTITLE8=09 Uuzgin Üüver - Szûrõ/ Filter
TTITLE9=10 Uuzgin Üüver - Albatrosz/ Albatros
TTITLE10=11 Uuzgin Üüver - Négyes/ Fourth
TTITLE11=12 Uuzgin Üüver - Varjú II./ Crow II.
EXTD=YEAR: 2004
EXTT0=
EXTT1=
EXTT2=
EXTT3=
EXTT4=
EXTT5=
EXTT6=
EXTT7=
EXTT8=
EXTT9=
EXTT10=
EXTT11=
PLAYORDER=
